<?xml version="1.0" encoding="UTF-8"?>
<svg width="170px" height="50px" viewBox="0 0 170 50" version="1.1" xmlns="http://www.w3.org/2000/svg" xmlns:xlink="http://www.w3.org/1999/xlink">
    <title>ATWINDOW 在窗 v2.0 主色</title>
    <g id="在窗V2.0" stroke="none" stroke-width="1" fill="none" fill-rule="evenodd">
        <g id="关于我们" transform="translate(-160.000000, -15.000000)" fill-rule="nonzero">
            <g id="ATWINDOW-在窗-v2.0-主色" transform="translate(160.000000, 15.000000)">
                <polygon id="路径" fill="#FFFFFF" points="80.1344606 17.3534832 80.1344606 15.591596 69.6995178 15.591596 71.3139667 13.5458902 67.6832995 13.5458902 66.0725366 15.591596 60.613635 15.591596 60.613635 17.3534832 64.679245 17.3534832 62.3607784 20.2911906 60.3703618 20.2911906 60.3703618 22.0530778 62.4271256 22.0530778 62.4271256 29.1079985 65.2616261 29.1079985 65.2616261 21.2126797 68.3135981 17.3534832"></polygon>
                <path d="M102.755176,14.8765205 L94.5834101,14.8765205 L94.2148145,13.9292296 L91.1480987,13.9292296 L91.5166943,14.8765205 L83.6029457,14.8765205 C83.1958062,14.8765205 82.8657544,15.2065722 82.8657544,15.6137118 L82.8657544,18.8610394 L85.6744532,18.8610394 L85.6744532,16.6494655 L99.8985594,16.6494655 C100.305699,16.6494655 100.635751,16.9795173 100.635751,17.3866568 L100.635751,18.8610394 L102.755176,18.8610394 C103.162315,18.8610394 103.492367,18.5309877 103.492367,18.1238481 L103.492367,15.6137118 C103.492367,15.2065722 103.162315,14.8765205 102.755176,14.8765205 Z" id="路径" fill="#FFFFFF"></path>
                <polygon id="路径" fill="#FFFFFF" points="87.5137455 17.0475488 85.8403213 18.8610394 89.4783604 18.8610394 91.1333548 17.0475488"></polygon>
                <polygon id="路径" fill="#FFFFFF" points="98.8185741 17.0475488 95.1915929 17.0475488 96.8539593 18.8610394 100.480941 18.8610394"></polygon>
                <path d="M102.556134,19.7567269 L93.6287474,19.7567269 L94.4507157,18.8610394 L90.5878333,18.8610394 L89.7695509,19.7567269 L83.8019873,19.7567269 C83.3948478,19.7567269 83.064796,20.0867787 83.064796,20.4939182 L83.064796,27.3461113 L74.1374094,27.3461113 L74.1374094,22.6170291 L79.1834838,22.6170291 L79.1834838,20.8551419 L74.1374094,20.8551419 L74.1374094,18.223369 L71.2807931,18.223369 L71.2807931,20.8551419 L66.9424223,20.8551419 L66.9424223,22.6170291 L71.2807931,22.6170291 L71.2807931,27.3461113 L66.2789501,27.3461113 L66.2789501,29.1190564 L103.293325,29.1190564 L103.293325,20.4939182 C103.293325,20.0867787 102.963274,19.7567269 102.556134,19.7567269 Z M100.34456,27.4972355 L94.1079217,27.4972355 L95.1473615,26.7084408 L98.4462925,26.9627718 L98.4462925,25.4883892 L96.9055627,25.3778105 L98.5900448,24.0766679 L100.359304,22.7202359 L91.2328757,22.7202359 L91.4945786,22.0051603 L87.5137455,22.0051603 L86.8465874,23.9992628 L95.1252457,23.9992628 L93.6508631,25.1050498 L87.3589354,24.6369333 L87.3147039,26.1113159 L91.8742321,26.4799115 L90.4772546,27.5267232 L86.2162889,27.5267232 L86.2162889,21.3416882 L99.6331705,21.3416882 C100.04031,21.3416882 100.370362,21.67174 100.370362,22.0788795 L100.34456,27.4972355 Z" id="形状" fill="#FFFFFF"></path>
                <path d="M142.139621,13.9291466 L140.031254,13.9291466 L140.031254,29.1190564 L142.88787,29.1190564 L142.88787,14.6664209 C142.88787,14.4689746 142.808708,14.2797716 142.668057,14.1411991 C142.527406,14.0026266 142.337045,13.9262679 142.139621,13.9291466 Z" id="路径" fill="#FFFFFF"></path>
                <path d="M138.107185,15.8754147 L132.976333,15.8754147 L133.647177,13.9292296 L130.624693,13.9292296 L129.34198,17.6336159 L134.837741,17.6336159 C135.061707,17.6290806 135.275584,17.7266275 135.418992,17.8987178 C135.562401,18.070808 135.619781,18.2987695 135.574932,18.5182455 L134.974122,21.5001843 L129.34198,20.6413564 L129.34198,22.4290453 L134.609212,23.221526 L134.10055,25.930704 L125.799776,25.930704 L125.799776,23.5127165 L126.618058,23.5127165 L126.618058,22.4843347 C126.618058,22.0771952 126.288006,21.7471434 125.880867,21.7471434 L125.799776,21.7471434 L125.799776,18.4297825 C125.799776,18.022643 125.469724,17.6925912 125.062584,17.6925912 L112.755176,17.6925912 L112.755176,21.7471434 L111.936893,21.7471434 L111.936893,23.5090306 L112.755176,23.5090306 L112.755176,27.7036491 L122.957903,27.7036491 L122.957903,29.1190564 L125.81452,29.1190564 L125.81452,27.7036491 L136.640174,27.7036491 L138.851748,16.7563583 C138.895631,16.5361382 138.836751,16.3079237 138.691801,16.1364237 C138.546851,15.9649238 138.331638,15.8688394 138.107185,15.8754147 Z M122.943159,25.9417619 L121.188644,25.9417619 L120.613635,24.2793955 L117.587465,24.2793955 L118.169846,25.9417619 L115.589676,25.9417619 L115.589676,23.5127165 L122.935788,23.5127165 L122.943159,25.9417619 Z M122.943159,21.7508293 L120.996974,21.7508293 L120.440395,20.1400663 L117.410539,20.1400663 L118.007664,21.7471434 L115.597048,21.7471434 L115.597048,19.4765942 L122.205968,19.4765942 C122.613108,19.4765942 122.943159,19.806646 122.943159,20.2137855 L122.943159,21.7508293 Z" id="形状" fill="#FFFFFF"></path>
                <polygon id="路径" fill="#FFFFFF" points="107.325762 21.5702175 110.285585 21.5702175 109.290377 17.9174346 111.361884 17.9174346 110.281899 13.9329156 107.322076 13.9329156 108.335714 17.6594176 106.27895 17.6594176"></polygon>
                <path d="M126.618058,15.8164394 C126.618058,15.4092999 126.288006,15.0792481 125.880867,15.0792481 L115.829263,15.0792481 L116.304752,13.9292296 L113.238036,13.9292296 L112.253886,16.8190195 L126.629116,16.8190195 L126.618058,15.8164394 Z" id="路径" fill="#FFFFFF"></path>
                <polygon id="路径" fill="#FFFFFF" points="106.544339 29.1079985 109.548394 29.1079985 111.483521 23.0777737 108.479466 23.0777737"></polygon>
                <path d="M168.534755,27.3461113 L154.553922,27.3461113 L154.553922,20.4976041 L163.665607,20.4976041 C164.072746,20.4976041 164.402798,20.8276559 164.402798,21.2347954 L164.402798,23.4463693 L159.242459,23.4463693 L159.242459,25.2119425 L167.255729,25.2119425 L167.255729,20.342794 L169.791667,20.342794 L165.678139,13.8886841 C165.542963,13.6752182 165.307879,13.5458843 165.055213,13.5458843 L157.631696,13.5458843 L156.636488,15.2856616 L162.784663,15.2856616 C163.03459,15.285271 163.267694,15.4115357 163.403904,15.6210837 L165.41275,18.732031 L153.507111,18.732031 L155.460668,15.2856616 L155.460668,15.2856616 L156.455876,13.5458843 L153.614004,13.5458843 C153.349584,13.5448404 153.104856,13.685489 152.972647,13.9144858 L147.569035,23.3431626 L146.400587,17.4456321 C146.329467,17.0968498 146.019282,16.848702 145.663395,16.8558791 L143.367044,16.8558791 L145.291114,26.6420936 L148.932839,26.6420936 L151.723108,21.7471434 L151.697306,29.1190564 L169.271947,29.1190564 L169.271947,28.0833026 C169.271947,27.6761631 168.941895,27.3461113 168.534755,27.3461113 Z" id="路径" fill="#FFFFFF"></path>
                <path d="M112.38658,43.4058238 L111.380314,41.7176557 L108.28411,41.7176557 L108.84069,40.762993 L110.816363,40.762993 L109.559451,38.6509399 C109.509653,38.5670144 109.419295,38.5155623 109.321707,38.5155623 C109.224119,38.5155623 109.133761,38.5670144 109.083963,38.6509399 L106.271578,43.4058238 L104.92989,43.4058238 L108.792772,36.9775157 C108.852679,36.8698042 108.934256,36.7756761 109.03236,36.7010689 C109.129871,36.630909 109.247696,36.5946551 109.367782,36.5978621 C109.485675,36.5940405 109.601362,36.6304364 109.695832,36.7010689 C109.791834,36.776856 109.871989,36.8707882 109.931733,36.9775157 L113.801987,43.4058238 L112.38658,43.4058238 Z" id="路径" fill="#FFFFFF"></path>
                <path d="M115.479098,43.4942868 L115.479098,38.4445264 C115.480079,38.2904092 115.419543,38.1422671 115.31091,38.0329422 C115.202277,37.9236173 115.054523,37.8621421 114.900402,37.8621452 L112.928416,37.8621452 L112.928416,36.6900111 L119.194542,36.6900111 L119.194542,37.8621452 L117.226241,37.8621452 C116.904601,37.8621452 116.64386,38.1228861 116.64386,38.4445264 L116.64386,43.048286 L115.479098,43.4942868 Z" id="路径" fill="#FFFFFF"></path>
                <path d="M125.254254,41.1610763 L124.211129,43.1256911 C124.152074,43.2409341 124.061262,43.3368622 123.949426,43.4021379 C123.847173,43.4638258 123.729728,43.4957401 123.610318,43.4942868 C123.351491,43.5029456 123.111786,43.3585453 122.998449,43.1256911 L119.526278,36.6863251 L120.930627,36.6863251 L123.223292,41.0468116 C123.223292,41.0468116 123.418648,41.4154073 123.647177,41.4154073 C123.875706,41.4154073 124.078434,41.0468116 124.078434,41.0468116 L124.660815,39.996314 L122.917358,36.6789532 L124.329079,36.6789532 L126.540653,41.102101 C126.61478,41.2419972 126.760142,41.3294818 126.918464,41.3294818 C127.076785,41.3294818 127.222147,41.2419972 127.296274,41.102101 L129.647914,36.6789532 L130.956429,36.6789532 L127.499002,43.1256911 C127.441004,43.241678 127.349936,43.3378768 127.237299,43.4021379 C127.125418,43.4665947 126.997754,43.4985107 126.868703,43.4942868 C126.749293,43.4957401 126.631848,43.4638258 126.529595,43.4021379 C126.418045,43.3376564 126.328222,43.2414181 126.271578,43.1256911 L125.254254,41.1610763 Z" id="路径" fill="#FFFFFF"></path>
                <polygon id="路径" fill="#FFFFFF" points="131.759967 43.4058238 131.759967 37.1396978 132.932102 36.697383 132.932102 42.8713601"></polygon>
                <path d="M135.23951,38.4924438 L135.23951,42.8934759 L134.133723,43.4058238 L134.133723,37.3092518 C134.121392,37.124146 134.179304,36.941196 134.295906,36.7969038 C134.405117,36.6693064 134.566709,36.5986946 134.734534,36.6052341 C134.820205,36.6063685 134.904554,36.6265117 134.981493,36.6642094 C135.076012,36.7091265 135.161084,36.7716793 135.232138,36.8485072 L139.972279,41.5517877 L139.972279,37.0401769 L141.078065,36.6347217 L141.078065,42.7865831 C141.0923,42.9741709 141.034279,43.1601032 140.915883,43.306303 C140.810654,43.4277927 140.656337,43.4954755 140.495684,43.4906008 C140.290395,43.4851432 140.096687,43.3943008 139.961221,43.2399558 L135.23951,38.4924438 Z" id="路径" fill="#FFFFFF"></path>
                <path d="M154.122666,43.4058238 C153.676531,43.4114162 153.234293,43.3222148 152.825209,43.1441209 C152.435439,42.9697246 152.084522,42.7190699 151.793141,42.4069296 C151.492925,42.0963782 151.259589,41.7275562 151.107553,41.3232584 C150.942838,40.8901707 150.860337,40.4301626 150.86428,39.9668264 C150.858593,39.5045423 150.94116,39.0454182 151.107553,38.6140804 C151.260191,38.2231128 151.493839,37.8688727 151.793141,37.5746406 C152.089586,37.2870083 152.440463,37.0614439 152.825209,36.9111684 C153.238654,36.7503738 153.679081,36.670296 154.122666,36.6752672 L154.653443,36.6752672 C155.10935,36.6702056 155.562094,36.7514993 155.98776,36.9148544 C156.376245,37.0671788 156.729839,37.2966385 157.027199,37.5893844 C157.321582,37.8854273 157.551275,38.2393807 157.701729,38.6288242 C157.865113,39.0557646 157.9464,39.5097197 157.941317,39.9668264 C157.94526,40.4301626 157.862759,40.8901707 157.698043,41.3232584 C157.390377,42.1334504 156.76823,42.7848438 155.973016,43.1293771 C155.556477,43.3085025 155.106816,43.3976809 154.653443,43.39108 L154.122666,43.4058238 Z M154.653443,42.2336896 C154.944385,42.236768 155.232884,42.1803226 155.501213,42.0678216 C156.013751,41.8530938 156.414195,41.4352973 156.607,40.9141172 C156.714674,40.6343075 156.768451,40.3366567 156.765496,40.0368596 C156.769432,39.7381777 156.715614,39.4415493 156.607,39.1632879 C156.510121,38.9056235 156.360754,38.6709033 156.168371,38.474014 C155.97718,38.2806432 155.749039,38.1277136 155.497527,38.0243273 C155.228332,37.9151108 154.940256,37.8600007 154.649757,37.8621452 L154.11898,37.8621452 C153.833219,37.8595921 153.549884,37.9147547 153.285953,38.0243273 C153.03664,38.1277741 152.810924,38.2807594 152.622481,38.474014 C152.435432,38.6715693 152.28781,38.903011 152.187538,39.155916 C152.081599,39.4373812 152.029098,39.7361395 152.032728,40.0368596 C152.032755,40.33673 152.087723,40.634058 152.19491,40.9141172 C152.294167,41.1719302 152.441798,41.4083899 152.629853,41.610763 C152.817943,41.8062784 153.043622,41.961746 153.293325,42.0678216 C153.5565,42.1802617 153.84018,42.2367468 154.126352,42.2336896 L154.653443,42.2336896 Z" id="形状" fill="#FFFFFF"></path>
                <path d="M163.518169,41.1610763 L162.471357,43.1256911 C162.35565,43.3531482 162.122056,43.4964002 161.86686,43.4964002 C161.611664,43.4964002 161.37807,43.3531482 161.262363,43.1256911 L157.786506,36.6863251 L159.198228,36.6863251 L161.914778,41.8466642 L162.928416,40.003686 L161.181272,36.6863251 L162.59668,36.6863251 L165.176849,41.8466642 L167.911829,36.6863251 L169.224029,36.6863251 L165.762916,43.1256911 C165.6435,43.352899 165.407725,43.4949322 165.151047,43.4942868 C165.031637,43.4957401 164.914192,43.4638258 164.811939,43.4021379 C164.700103,43.3368622 164.609291,43.2409341 164.550237,43.1256911 L163.518169,41.1610763 Z" id="路径" fill="#FFFFFF"></path>
                <path d="M149.142938,38.643568 C148.987083,38.2551573 148.755252,37.901771 148.461036,37.6041283 C148.165776,37.3122903 147.814779,37.0828886 147.428969,36.9295982 C147.010639,36.7675298 146.565379,36.6862322 146.116768,36.6900111 L142.242828,36.6900111 L142.242828,43.4058238 L142.792035,43.4058238 L143.414962,42.2300037 L143.414962,37.8621452 L146.135198,37.8621452 C146.420958,37.8595921 146.704293,37.9147547 146.968224,38.0243273 C147.217057,38.1286622 147.442606,38.2815342 147.631696,38.474014 C147.824079,38.6709033 147.973446,38.9056235 148.070325,39.1632879 C148.178939,39.4415493 148.232757,39.7381777 148.228821,40.0368596 C148.231776,40.3366567 148.177999,40.6343075 148.070325,40.9141172 C147.767616,41.7176659 146.993794,42.2453389 146.135198,42.2336896 L144.660815,42.2336896 L144.041575,43.4058238 L146.12414,43.4058238 C146.575035,43.4113879 147.022077,43.3222308 147.43634,43.1441209 C147.826664,42.9706918 148.177762,42.7199073 148.468408,42.4069296 C148.764986,42.0942383 148.99674,41.7259375 149.15031,41.3232584 C149.315025,40.8901707 149.397527,40.4301626 149.393583,39.9668264 C149.395065,39.5138035 149.309992,39.0646679 149.142938,38.643568 L149.142938,38.643568 Z" id="路径" fill="#FFFFFF"></path>
                <polygon id="路径" fill="#1890FF" points="23.3965321 0 23.3965321 50 0.333502273 41.69554 0.333502273 8.30077405"></polygon>
                <polygon id="路径" fill="#007CFF" points="48.6711359 8.30077405 48.6711359 41.69554 25.608106 50 25.608106 0"></polygon>
                <path d="M17.5321753,41.2347954 L21.3618841,42.6133432 L12.3423486,12.6612606 C12.3423486,12.6612606 11.2365616,10.3280501 10.3150725,12.6612606 C9.39358336,14.9944711 2.20596818,35.6984888 2.20596818,35.6984888 L4.47651739,36.5352009 L10.3408742,19.2886104 C10.4341872,19.0049774 10.7020193,18.815737 11.0005306,18.8225213 C11.2990418,18.8293057 11.558,19.0305186 11.6383309,19.318098 L14.3954263,28.9679322 L9.51890589,27.1249539 L8.48683806,30.4423148 L15.2616261,32.9524512 L17.5321753,41.2347954 Z" id="路径" fill="#FFFFFF"></path>
                <path d="M39.5004761,27.5488389 L36.1831152,38.8241799 C35.8771809,39.6424622 35.3869486,39.7346111 35.1141879,39.7346111 C34.513377,39.7346111 34.0378886,39.6424622 33.6398053,38.389237 L28.0961267,11.6255068 L31.2955369,12.7718393 L35.1731632,31.5038703 C35.2111675,31.6998948 35.3757928,31.8461507 35.5749289,31.8608057 C35.7740649,31.8754608 35.9583276,31.7548806 36.0246191,31.5665315 L38.4647223,23.302617 L36.8244717,14.7696277 L39.1245085,15.5989679 L42.2465137,30.593439 C42.2465137,30.593439 42.3497205,31.0283819 42.5782498,31.0283819 C42.8067791,31.0283819 42.8915561,30.6266126 42.8915561,30.6266126 L45.4201223,17.8768891 L46.8723891,18.4002949 L43.7540699,35.7537781 C43.5292266,36.5720604 43.3043832,37.036491 42.7035723,37.1102101 C42.0285638,37.1564912 41.4165149,36.7148864 41.2476195,36.0597125 L39.5004761,27.5488389 Z" id="路径" fill="#FFFFFF"></path>
            </g>
        </g>
    </g>
</svg>